<?xml version="1.0" encoding="utf-8"?>
<!-- Generator: Adobe Illustrator 13.0.0, SVG Export Plug-In . SVG Version: 6.00 Build 14948)  -->
<!DOCTYPE svg PUBLIC "-//W3C//DTD SVG 1.1//EN" "http://www.w3.org/Graphics/SVG/1.1/DTD/svg11.dtd">
<svg version="1.1" id="Layer_1" xmlns="http://www.w3.org/2000/svg" xmlns:xlink="http://www.w3.org/1999/xlink" x="0px" y="0px"
	 width="313.496px" height="36.635px" viewBox="0 0 313.496 36.635" enable-background="new 0 0 313.496 36.635"
	 xml:space="preserve">
<g>
	<g>
		<path fill-rule="evenodd" clip-rule="evenodd" d="M5.79,10.635c2.761,0,5-2.238,5-5c0-2.761-2.239-5-5-5s-5,2.239-5,5
			C0.79,8.396,3.029,10.635,5.79,10.635z M8.79,19.635c-4.418,0-8,3.582-8,8s3.582,8,8,8c4.418,0,8-3.582,8-8
			S13.208,19.635,8.79,19.635z M31.79,26.635c-2.762,0-5,2.238-5,5s2.238,5,5,5s5-2.238,5-5S34.552,26.635,31.79,26.635z
			 M36.79,8.635c0-4.418-3.582-8-8-8s-8,3.582-8,8s3.582,8,8,8S36.79,13.053,36.79,8.635z"/>
	</g>
</g>
<g>
	<g>
		<path fill-rule="evenodd" clip-rule="evenodd" d="M5.79,10.635c2.761,0,5-2.238,5-5c0-2.761-2.239-5-5-5s-5,2.239-5,5
			C0.79,8.396,3.029,10.635,5.79,10.635z M8.79,19.635c-4.418,0-8,3.582-8,8s3.582,8,8,8c4.418,0,8-3.582,8-8
			S13.208,19.635,8.79,19.635z M31.79,26.635c-2.762,0-5,2.238-5,5s2.238,5,5,5s5-2.238,5-5S34.552,26.635,31.79,26.635z
			 M36.79,8.635c0-4.418-3.582-8-8-8s-8,3.582-8,8s3.582,8,8,8S36.79,13.053,36.79,8.635z"/>
	</g>
</g>
<g>
	<g>
		<path d="M68.79,35.931h8.109V0.961H68.79V35.931z M103.782,13.336c-0.719-0.844-1.602-1.5-2.648-1.969s-2.25-0.702-3.609-0.702
			c-0.797,0-1.535,0.073-2.215,0.222s-1.312,0.355-1.898,0.621c-0.586,0.266-1.133,0.591-1.641,0.973
			c-0.508,0.384-1.004,0.801-1.488,1.254l-0.445-1.453c-0.125-0.406-0.344-0.715-0.656-0.926c-0.312-0.21-0.703-0.316-1.172-0.316
			h-4.594v24.892h7.43V18.188c0.656-0.594,1.348-1.066,2.074-1.418s1.496-0.527,2.309-0.527c1.078,0,1.898,0.34,2.461,1.02
			s0.844,1.629,0.844,2.848v15.821h7.43V20.109c0-1.359-0.184-2.617-0.551-3.773S104.501,14.18,103.782,13.336z M124.22,30.218
			c-0.141-0.101-0.32-0.15-0.539-0.15c-0.156,0-0.293,0.028-0.41,0.082c-0.117,0.056-0.246,0.118-0.387,0.188
			c-0.141,0.072-0.305,0.139-0.492,0.201c-0.188,0.063-0.414,0.094-0.68,0.094c-0.516,0-0.914-0.188-1.195-0.565
			s-0.422-0.856-0.422-1.439V16.172h6.07v-5.015h-6.07V3.821h-3.891c-0.906,0-1.453,0.386-1.641,1.157l-1.436,6.116l-3.979,0.779
			v2.866c0,0.478,0.134,0.836,0.4,1.074c0.268,0.239,0.598,0.358,0.992,0.358h2.123v12.867c0,1.109,0.16,2.109,0.479,3
			c0.32,0.892,0.787,1.652,1.402,2.285s1.374,1.121,2.277,1.465c0.904,0.344,1.947,0.516,3.131,0.516
			c1.281,0,2.523-0.177,3.727-0.53c1.203-0.353,2.281-0.884,3.234-1.591l-2.273-3.469C124.501,30.483,124.36,30.318,124.22,30.218z
			 M149.603,13.652c-0.984-0.977-2.16-1.719-3.527-2.227c-1.367-0.507-2.871-0.761-4.512-0.761c-1.906,0-3.617,0.328-5.133,0.983
			c-1.516,0.656-2.805,1.543-3.867,2.66s-1.879,2.423-2.449,3.914c-0.57,1.492-0.855,3.066-0.855,4.723
			c0,2.203,0.332,4.137,0.996,5.801s1.57,3.059,2.719,4.185c1.148,1.124,2.484,1.968,4.008,2.53s3.16,0.844,4.91,0.844
			c0.844,0,1.734-0.059,2.672-0.176c0.938-0.119,1.875-0.334,2.812-0.647s1.852-0.749,2.742-1.306s1.719-1.275,2.484-2.154
			l-2.336-2.67c-0.318-0.421-0.797-0.633-1.433-0.633c-0.485,0-0.946,0.102-1.382,0.305c-0.436,0.201-0.896,0.432-1.38,0.688
			c-0.484,0.258-1.039,0.49-1.664,0.701s-1.367,0.314-2.227,0.314c-1.626,0-2.949-0.467-3.973-1.4s-1.652-2.436-1.887-4.506h14.615
			c0.368,0,0.665-0.039,0.89-0.117c0.227-0.078,0.41-0.223,0.553-0.434c0.142-0.211,0.238-0.492,0.288-0.844
			s0.075-0.809,0.075-1.371c0-1.797-0.277-3.402-0.832-4.816S150.587,14.629,149.603,13.652z M136.313,20.508
			c0.25-1.568,0.777-2.766,1.582-3.591s1.918-1.237,3.34-1.237c0.797,0,1.477,0.141,2.039,0.42c0.562,0.281,1.016,0.646,1.359,1.094
			c0.344,0.448,0.59,0.961,0.738,1.538c0.148,0.575,0.223,1.169,0.223,1.776H136.313z M166.595,11.705
			c-1.141,0.758-2.164,1.79-3.07,3.1l-0.422-2.143c-0.062-0.303-0.137-0.555-0.223-0.758c-0.086-0.201-0.211-0.367-0.375-0.497
			s-0.371-0.223-0.621-0.281c-0.25-0.059-0.562-0.087-0.938-0.087h-4.406v24.892h7.43V20.239c1.125-2.133,2.664-3.2,4.617-3.2
			c0.562,0,1.027,0.035,1.395,0.105s0.684,0.105,0.949,0.105c0.328,0,0.586-0.061,0.773-0.184s0.312-0.342,0.375-0.66l0.961-5.064
			c-0.672-0.514-1.578-0.771-2.719-0.771C168.978,10.57,167.735,10.949,166.595,11.705z M191.788,23.32
			c-0.562-0.508-1.195-0.936-1.901-1.285s-1.429-0.655-2.166-0.916c-0.738-0.262-1.449-0.5-2.134-0.715
			c-0.686-0.214-1.299-0.436-1.844-0.666s-0.98-0.5-1.307-0.81c-0.326-0.309-0.49-0.702-0.49-1.179c0-0.65,0.252-1.157,0.758-1.523
			c0.506-0.364,1.225-0.547,2.156-0.547c0.661,0,1.25,0.076,1.77,0.227c0.519,0.15,0.986,0.318,1.404,0.5
			c0.418,0.183,0.807,0.35,1.168,0.5s0.727,0.226,1.096,0.226c0.338,0,0.618-0.061,0.843-0.184c0.226-0.124,0.434-0.331,0.626-0.622
			l1.734-2.58c-0.479-0.45-1.029-0.861-1.65-1.237c-0.622-0.375-1.309-0.7-2.058-0.979c-0.75-0.277-1.556-0.491-2.417-0.642
			c-0.861-0.149-1.746-0.224-2.654-0.224c-1.654,0-3.104,0.206-4.348,0.619c-1.244,0.411-2.276,0.97-3.096,1.673
			c-0.818,0.703-1.438,1.521-1.854,2.454s-0.626,1.919-0.626,2.958c0,1.143,0.17,2.123,0.511,2.939
			c0.341,0.818,0.788,1.504,1.342,2.06s1.184,1.015,1.888,1.38c0.705,0.365,1.422,0.678,2.149,0.941
			c0.728,0.261,1.438,0.496,2.131,0.701c0.692,0.206,1.31,0.429,1.854,0.666c0.545,0.238,0.984,0.516,1.318,0.833
			s0.502,0.73,0.502,1.237c0,0.283-0.055,0.549-0.163,0.799c-0.108,0.251-0.284,0.482-0.524,0.694
			c-0.241,0.211-0.561,0.376-0.957,0.493c-0.396,0.118-0.881,0.176-1.457,0.176c-0.815,0-1.494-0.094-2.035-0.281
			s-1.014-0.395-1.417-0.621s-0.78-0.434-1.128-0.621c-0.349-0.188-0.744-0.281-1.188-0.281c-0.469,0-0.848,0.094-1.137,0.281
			s-0.535,0.438-0.738,0.75l-1.711,2.719c0.469,0.438,1.039,0.844,1.711,1.219s1.408,0.699,2.211,0.973
			c0.801,0.274,1.628,0.488,2.479,0.645c0.853,0.156,1.704,0.234,2.556,0.234c1.73,0,3.26-0.207,4.585-0.622
			c1.325-0.416,2.441-0.999,3.347-1.752c0.904-0.753,1.584-1.649,2.036-2.691s0.679-2.183,0.679-3.421
			c0-1.031-0.168-1.912-0.506-2.642C192.8,24.446,192.351,23.828,191.788,23.32z M210.446,30.218c-0.141-0.101-0.32-0.15-0.539-0.15
			c-0.156,0-0.293,0.028-0.41,0.082c-0.117,0.056-0.246,0.118-0.387,0.188c-0.141,0.072-0.305,0.139-0.492,0.201
			c-0.188,0.063-0.414,0.094-0.68,0.094c-0.516,0-0.914-0.188-1.195-0.565s-0.422-0.856-0.422-1.439V16.172h6.07v-5.015h-6.07V3.821
			h-3.891c-0.906,0-1.453,0.386-1.641,1.157l-1.436,6.116l-3.979,0.779v2.866c0,0.478,0.134,0.836,0.4,1.074
			c0.268,0.239,0.598,0.358,0.992,0.358h2.123v12.867c0,1.109,0.16,2.109,0.479,3c0.32,0.892,0.787,1.652,1.402,2.285
			s1.374,1.121,2.277,1.465s1.947,0.516,3.131,0.516c1.281,0,2.523-0.177,3.727-0.53c1.203-0.353,2.281-0.884,3.234-1.591
			l-2.273-3.469C210.728,30.483,210.587,30.318,210.446,30.218z M235.829,13.652c-0.984-0.977-2.16-1.719-3.527-2.227
			c-1.367-0.507-2.871-0.761-4.512-0.761c-1.906,0-3.617,0.328-5.133,0.983c-1.516,0.656-2.805,1.543-3.867,2.66
			s-1.879,2.423-2.449,3.914c-0.57,1.492-0.855,3.066-0.855,4.723c0,2.203,0.332,4.137,0.996,5.801s1.57,3.059,2.719,4.185
			c1.148,1.124,2.484,1.968,4.008,2.53s3.16,0.844,4.91,0.844c0.844,0,1.734-0.059,2.672-0.176c0.938-0.119,1.875-0.334,2.812-0.647
			s1.852-0.749,2.742-1.306s1.719-1.275,2.484-2.154l-2.336-2.67c-0.319-0.421-0.797-0.633-1.433-0.633
			c-0.485,0-0.946,0.102-1.382,0.305c-0.436,0.201-0.896,0.432-1.38,0.688c-0.484,0.258-1.039,0.49-1.664,0.701
			s-1.367,0.314-2.227,0.314c-1.625,0-2.949-0.467-3.973-1.4s-1.652-2.436-1.887-4.506h14.615c0.368,0,0.665-0.039,0.89-0.117
			c0.227-0.078,0.41-0.223,0.553-0.434c0.142-0.211,0.238-0.492,0.287-0.844c0.051-0.352,0.076-0.809,0.076-1.371
			c0-1.797-0.277-3.402-0.832-4.816S236.813,14.629,235.829,13.652z M222.54,20.508c0.25-1.568,0.777-2.766,1.582-3.591
			s1.918-1.237,3.34-1.237c0.797,0,1.477,0.141,2.039,0.42c0.562,0.281,1.016,0.646,1.359,1.094c0.344,0.448,0.59,0.961,0.738,1.538
			c0.148,0.575,0.223,1.169,0.223,1.776H222.54z M243.001,35.931h7.43V0h-7.43V35.931z M256.665,35.931h7.43V0h-7.43V35.931z
			 M288.04,13.336c-0.828-0.875-1.84-1.555-3.039-2.039c-1.197-0.484-2.539-0.727-4.023-0.727c-2.099,0-4.067,0.325-5.907,0.973
			c-1.84,0.648-3.512,1.637-5.015,2.965l1.345,2.32c0.204,0.359,0.487,0.664,0.849,0.914c0.362,0.25,0.803,0.375,1.322,0.375
			c0.582,0,1.081-0.094,1.498-0.281c0.416-0.188,0.847-0.401,1.291-0.645c0.444-0.242,0.947-0.46,1.508-0.656
			c0.561-0.195,1.279-0.293,2.151-0.293c1.091,0,1.936,0.325,2.535,0.973c0.6,0.649,0.899,1.699,0.899,3.152v1.078
			c-2.848,0.062-5.212,0.348-7.09,0.855s-3.369,1.141-4.472,1.898c-1.104,0.758-1.878,1.605-2.324,2.543s-0.669,1.844-0.669,2.719
			c0,1.109,0.177,2.094,0.531,2.953c0.354,0.859,0.855,1.574,1.509,2.145c0.651,0.57,1.442,1.005,2.37,1.301
			c0.927,0.297,1.965,0.445,3.112,0.445c0.84,0,1.61-0.066,2.311-0.199s1.353-0.34,1.96-0.621s1.199-0.621,1.774-1.02
			s1.175-0.862,1.797-1.395l0.532,1.383c0.231,0.594,0.524,0.988,0.879,1.184c0.354,0.196,0.879,0.294,1.573,0.294h3.354V20.367
			c0-1.422-0.221-2.73-0.661-3.926S288.866,14.211,288.04,13.336z M283.454,29.193c-0.732,0.737-1.457,1.27-2.173,1.6
			c-0.717,0.331-1.55,0.496-2.5,0.496c-0.888,0-1.565-0.168-2.032-0.507c-0.468-0.337-0.701-0.921-0.701-1.751
			c0-0.414,0.105-0.807,0.315-1.176c0.21-0.368,0.596-0.69,1.156-0.967c0.562-0.277,1.319-0.512,2.278-0.703
			c0.957-0.191,2.176-0.319,3.656-0.381V29.193z M309.728,10.57c-1.344,0-2.586,0.378-3.727,1.135c-1.141,0.758-2.164,1.79-3.07,3.1
			l-0.422-2.143c-0.062-0.303-0.137-0.555-0.223-0.758c-0.086-0.201-0.211-0.367-0.375-0.497s-0.371-0.223-0.621-0.281
			c-0.25-0.059-0.562-0.087-0.938-0.087h-4.406v24.892h7.43V20.239c1.125-2.133,2.664-3.2,4.617-3.2
			c0.562,0,1.027,0.035,1.395,0.105s0.684,0.105,0.949,0.105c0.328,0,0.586-0.061,0.773-0.184s0.312-0.342,0.375-0.66l0.961-5.064
			C311.774,10.828,310.868,10.57,309.728,10.57z"/>
	</g>
</g>
</svg>
